<svg xmlns="http://www.w3.org/2000/svg" class="viz" width="980" height="556" viewBox="0 0 980 556" role="img">
<style>
.viz { --surface:#fcfcfb; --ink:#0b0b0b; --ink2:#52514e; --muted:#898781; --grid:#e1e0d9;
  --axis:#c3c2b7; --s1:#2a78d6; --s2:#eb6834; --s3:#1baf7a;
  --h0:#cde2fb; --h1:#9ec5f4; --h2:#6da7ec; --h3:#3987e5; --h4:#256abf; --h5:#184f95; --h6:#0d366b; }
@media (prefers-color-scheme: dark) {
  .viz { --surface:#1a1a19; --ink:#ffffff; --ink2:#c3c2b7; --grid:#2c2c2a; --axis:#383835;
    --s1:#3987e5; --s2:#d95926; --s3:#199e70;
    --h0:#0d366b; --h1:#104281; --h2:#184f95; --h3:#1c5cab; --h4:#256abf; --h5:#3987e5; --h6:#6da7ec; } }
.viz text { font-family:system-ui, -apple-system, "Segoe UI", sans-serif; fill:var(--ink2); font-size:11px; }
.viz .title { fill:var(--ink); font-size:15px; font-weight:600; }
.viz .subtitle { fill:var(--ink2); font-size:12px; }
.viz .panel { fill:var(--ink); font-size:12px; font-weight:600; }
.viz .muted { fill:var(--muted); }
.viz .value { fill:var(--ink); font-weight:600; }
.viz .tick { font-variant-numeric:tabular-nums; fill:var(--muted); }
.viz .grid { stroke:var(--grid); stroke-width:1; }
.viz .axis { stroke:var(--axis); stroke-width:1; }
.viz .ref { stroke:var(--muted); stroke-width:1; }
.viz .line1 { stroke:var(--s1); stroke-width:2; fill:none; stroke-linejoin:round; stroke-linecap:round; }
.viz .line0, .viz .line2, .viz .line3 { stroke-width:1.5; fill:none; stroke-linejoin:round; stroke-linecap:round; }
.viz .line0 { stroke:var(--ink2); }
.viz .line2 { stroke:var(--s2); }
.viz .line3 { stroke:var(--s3); }
.viz .strip { fill:transparent; }
.viz .strip:hover { fill:var(--grid); fill-opacity:0.5; }
.viz .dot1 { fill:var(--s1); stroke:var(--surface); stroke-width:2; }
.viz .dot2 { fill:var(--s2); stroke:var(--surface); stroke-width:2; }
.viz .dot3 { fill:var(--s3); stroke:var(--surface); stroke-width:2; }
.viz .dot1s { fill:var(--s1); fill-opacity:0.55; }
.viz .arrow { fill:var(--s1); }
.viz .hit { fill:transparent; }
</style>
<rect width="980" height="556" fill="var(--surface)"/>
<text class="title" x="24" y="30">Fitting the training tasks against generalising to unseen ones</text>
<text class="subtitle" x="24" y="50">In-distribution: a fixed 6,000-row sample of the short-task training file, mostly rows trained on. Held-out: four tasks no model trained on.</text>
<defs><marker id="arr" viewBox="0 0 10 10" refX="9" refY="5" markerWidth="7" markerHeight="7" orient="auto-start-reverse"><path class="arrow" d="M0,1 L10,5 L0,9 z"/></marker></defs>
<line class="line1" x1="24" x2="42" y1="74" y2="74"/><circle class="dot1" cx="33" cy="74" r="4"/><text x="48" y="78">adopted as the default recipe</text>
<circle class="dot2" cx="259.64" cy="74" r="4"/><text x="272.64" y="78">experiment, not adopted</text>
<rect class="dot3" x="442.32" y="69" width="10" height="10" rx="2"/><text x="458.32" y="78">scaling test: torso only</text>
<line class="grid" x1="88.0" x2="956.0" y1="464.0" y2="464.0"/>
<text class="tick" x="82.0" y="467.5" text-anchor="end">0.60</text>
<line class="grid" x1="88.0" x2="956.0" y1="396.0" y2="396.0"/>
<text class="tick" x="82.0" y="399.5" text-anchor="end">0.62</text>
<line class="grid" x1="88.0" x2="956.0" y1="328.0" y2="328.0"/>
<text class="tick" x="82.0" y="331.5" text-anchor="end">0.64</text>
<line class="grid" x1="88.0" x2="956.0" y1="260.0" y2="260.0"/>
<text class="tick" x="82.0" y="263.5" text-anchor="end">0.66</text>
<line class="grid" x1="88.0" x2="956.0" y1="192.0" y2="192.0"/>
<text class="tick" x="82.0" y="195.5" text-anchor="end">0.68</text>
<line class="grid" x1="88.0" x2="956.0" y1="124.0" y2="124.0"/>
<text class="tick" x="82.0" y="127.5" text-anchor="end">0.70</text>
<line class="grid" x1="88.0" x2="88.0" y1="124" y2="464"/>
<text class="tick" x="88.0" y="480" text-anchor="middle">0.84</text>
<line class="grid" x1="377.3" x2="377.3" y1="124" y2="464"/>
<text class="tick" x="377.3" y="480" text-anchor="middle">0.86</text>
<line class="grid" x1="666.7" x2="666.7" y1="124" y2="464"/>
<text class="tick" x="666.7" y="480" text-anchor="middle">0.88</text>
<line class="grid" x1="956.0" x2="956.0" y1="124" y2="464"/>
<text class="tick" x="956.0" y="480" text-anchor="middle">0.90</text>
<line class="axis" x1="88.0" x2="956.0" y1="464" y2="464"/>
<text class="panel" x="48.0" y="110">held-out accuracy (higher is better)</text>
<text class="muted" x="956.0" y="498" text-anchor="end">in-distribution accuracy &#8594;</text>
<text class="muted" x="952.0" y="138" text-anchor="end">better: right and up</text>
<line class="line1" x1="326.7" y1="294.7" x2="365.8" y2="396.0" marker-end="url(#arr)"/>
<line class="line1" x1="365.8" y1="396.0" x2="456.9" y2="282.8" marker-end="url(#arr)"/>
<line class="line1" x1="456.9" y1="282.8" x2="750.6" y2="307.6" marker-end="url(#arr)"/>
<line class="line1" x1="750.6" y1="307.6" x2="782.4" y2="338.2" marker-end="url(#arr)"/>
<line class="line1" x1="782.4" y1="338.2" x2="705.7" y2="365.4" marker-end="url(#arr)"/>
<line class="line1" x1="705.7" y1="365.4" x2="746.2" y2="326.3" marker-end="url(#arr)"/>
<line class="line1" x1="746.2" y1="326.3" x2="750.6" y2="323.9" marker-end="url(#arr)"/>
<g><title>Qwen3-1.7B, scaling test: in-distribution 0.848 (14 training tasks), held-out 0.620</title><circle class="hit" cx="208.1" cy="396.0" r="11"/><rect class="dot3" x="203.1" y="391.0" width="10" height="10" rx="2"/></g>
<text x="208.1" y="414.0" text-anchor="middle">Qwen3-1.7B, scaling test</text>
<g><title>Qwen3-4B, scaling test: in-distribution 0.851 (14 training tasks), held-out 0.681</title><circle class="hit" cx="250.0" cy="189.3" r="11"/><rect class="dot3" x="245.0" y="184.3" width="10" height="10" rx="2"/></g>
<text x="258.0" y="181.3" text-anchor="start">Qwen3-4B, scaling test</text>
<g><title>v4: in-distribution 0.857 (18 training tasks), held-out 0.650</title><circle class="hit" cx="326.7" cy="294.7" r="11"/><circle class="dot1" cx="326.7" cy="294.7" r="5"/></g>
<text x="318.7" y="286.7" text-anchor="end">v4</text>
<g><title>v5: in-distribution 0.859 (21 training tasks), held-out 0.620</title><circle class="hit" cx="365.8" cy="396.0" r="11"/><circle class="dot1" cx="365.8" cy="396.0" r="5"/></g>
<text x="373.8" y="400.0" text-anchor="start">v5</text>
<g><title>v7: in-distribution 0.866 (21 training tasks), held-out 0.653</title><circle class="hit" cx="456.9" cy="282.8" r="11"/><circle class="dot1" cx="456.9" cy="282.8" r="5"/></g>
<text x="464.9" y="274.8" text-anchor="start">v7</text>
<g><title>v13: in-distribution 0.886 (21 training tasks), held-out 0.646</title><circle class="hit" cx="750.6" cy="307.6" r="11"/><circle class="dot1" cx="750.6" cy="307.6" r="5"/></g>
<text x="742.6" y="301.6" text-anchor="end">v13</text>
<g><title>v14: in-distribution 0.888 (21 training tasks), held-out 0.637</title><circle class="hit" cx="782.4" cy="338.2" r="11"/><circle class="dot1" cx="782.4" cy="338.2" r="5"/></g>
<text x="790.4" y="342.2" text-anchor="start">v14</text>
<g><title>v16: in-distribution 0.883 (21 training tasks), held-out 0.629</title><circle class="hit" cx="705.7" cy="365.4" r="11"/><circle class="dot1" cx="705.7" cy="365.4" r="5"/></g>
<text x="697.7" y="377.4" text-anchor="end">v16</text>
<g><title>v17: in-distribution 0.885 (21 training tasks), held-out 0.640</title><circle class="hit" cx="746.2" cy="326.3" r="11"/><circle class="dot1" cx="746.2" cy="326.3" r="5"/></g>
<g><title>v18: in-distribution 0.886 (21 training tasks), held-out 0.641</title><circle class="hit" cx="750.6" cy="323.9" r="11"/><circle class="dot1" cx="750.6" cy="323.9" r="5"/></g>
<text x="738.6" y="327.9" text-anchor="end">v17, v18</text>
<text class="muted" x="24" y="542">Measured for v4, v5, v7, v13, v14, v16, v17, v18. Training tasks: v4 18, v5 onwards 21, scaling runs 14. v5 held-out: its four common tasks, recombined.</text>
</svg>
